<?xml version="1.0" standalone="no"?>
<!DOCTYPE svg PUBLIC "-//W3C//DTD SVG 20010904//EN"
 "http://www.w3.org/TR/2001/REC-SVG-20010904/DTD/svg10.dtd">
<svg version="1.0" xmlns="http://www.w3.org/2000/svg"
 width="1280.000000pt" height="1280.000000pt" viewBox="0 0 1280.000000 1280.000000"
 preserveAspectRatio="xMidYMid meet">
<g transform="translate(0.000000,1280.000000) scale(0.100000,-0.100000)"
fill="#000000" stroke="none">
<path d="M6125 12789 c-49 -5 -175 -15 -280 -24 -1226 -98 -2421 -573 -3410
-1354 -416 -328 -833 -756 -1151 -1181 -679 -907 -1109 -1988 -1233 -3105 -61
-549 -61 -901 0 -1450 238 -2141 1568 -4036 3504 -4995 269 -133 378 -181 628
-274 527 -197 1106 -326 1662 -371 105 -8 240 -20 301 -25 141 -13 367 -13
508 0 61 5 197 17 301 25 973 79 1951 402 2793 922 1422 878 2448 2277 2851
3888 83 331 139 667 166 1000 8 105 20 240 25 301 13 140 13 374 1 501 -6 54
-15 168 -21 253 -58 799 -271 1576 -635 2315 -313 636 -678 1152 -1170 1654
-502 512 -1047 912 -1675 1230 -745 378 -1535 603 -2335 666 -104 8 -240 20
-301 25 -127 12 -398 11 -529 -1z m605 -975 c308 -14 746 -83 1050 -165 597
-162 1103 -390 1610 -724 801 -528 1435 -1245 1864 -2105 313 -628 488 -1248
551 -1955 33 -364 18 -876 -36 -1245 -317 -2178 -1923 -3952 -4059 -4484 -442
-111 -833 -157 -1310 -157 -289 0 -445 9 -700 42 -1452 187 -2772 961 -3652
2140 -537 720 -889 1571 -1017 2459 -72 492 -72 1071 -1 1560 170 1163 708
2231 1540 3060 275 274 504 461 825 674 377 251 751 441 1155 587 704 255
1367 351 2180 313z"/>
<path d="M6246 11184 c-3 -9 -6 -105 -6 -214 l0 -198 -97 -7 c-260 -18 -455
-45 -688 -96 -738 -162 -1423 -516 -1989 -1028 -50 -45 -96 -81 -103 -81 -7 0
-78 63 -157 140 -79 77 -145 140 -148 140 -10 0 -203 -201 -206 -214 -2 -7 63
-77 144 -154 88 -84 144 -146 141 -154 -3 -7 -38 -51 -78 -98 -449 -526 -777
-1188 -928 -1875 -66 -304 -90 -506 -98 -833 -3 -139 -10 -255 -14 -258 -4 -2
-97 -11 -205 -19 -109 -8 -201 -18 -205 -22 -8 -9 10 -284 20 -295 3 -4 96 0
205 8 127 10 203 11 209 5 5 -5 20 -80 32 -168 84 -575 277 -1113 583 -1623
122 -204 247 -377 446 -615 64 -76 116 -146 116 -155 0 -8 -70 -73 -155 -144
-92 -76 -152 -133 -148 -140 6 -10 161 -196 183 -220 8 -8 740 599 740 614 0
5 -86 111 -192 237 -106 125 -225 270 -265 321 -440 562 -703 1207 -795 1952
-8 67 -13 219 -12 425 0 345 12 476 69 755 306 1504 1507 2697 3008 2989 299
58 382 65 747 65 365 0 456 -8 745 -65 1582 -312 2812 -1601 3045 -3190 58
-392 52 -837 -15 -1229 -61 -360 -206 -785 -381 -1118 -152 -291 -288 -483
-617 -875 -119 -143 -217 -263 -217 -267 0 -15 732 -622 740 -614 22 24 177
211 183 220 4 7 -55 62 -148 140 -85 71 -155 135 -155 144 0 9 52 79 116 155
148 178 243 303 343 452 360 539 600 1169 690 1813 10 72 23 136 28 141 7 7
78 5 209 -5 109 -8 202 -12 205 -8 10 11 28 286 20 295 -4 4 -96 14 -205 22
-108 8 -201 17 -205 19 -4 3 -11 119 -14 258 -8 327 -32 530 -98 833 -149 677
-465 1320 -907 1849 -51 61 -96 117 -99 124 -3 8 52 68 141 154 81 77 146 147
144 154 -3 13 -196 214 -206 214 -3 0 -69 -63 -148 -140 -79 -77 -150 -140
-157 -140 -7 0 -53 36 -103 81 -566 512 -1251 866 -1989 1028 -233 51 -428 78
-687 96 l-98 7 0 198 c0 109 -3 205 -6 214 -5 14 -28 16 -154 16 -126 0 -149
-2 -154 -16z"/>
<path d="M7668 7739 c-497 -414 -911 -758 -920 -767 -16 -14 -24 -12 -85 15
-92 42 -159 56 -267 55 -297 -1 -545 -194 -622 -483 -21 -82 -22 -234 -1 -313
9 -33 13 -65 9 -72 -4 -7 -146 -128 -317 -269 -170 -142 -311 -262 -313 -266
-2 -5 94 -110 214 -234 l218 -226 27 28 c14 15 139 152 277 304 138 153 254
279 259 282 5 3 40 -3 78 -14 91 -26 244 -28 335 -4 223 58 407 243 465 465
32 122 17 319 -31 412 -8 15 -14 36 -14 46 0 12 311 363 783 884 887 981 822
908 814 908 -3 0 -412 -338 -909 -751z"/>
</g>
</svg>
